<mxfile host="65bd71144e">
    <diagram id="0SL5Q9NEj4o697X3ydUE" name="第 1 页">
        <mxGraphModel dx="704" dy="890" grid="0" gridSize="10" guides="1" tooltips="1" connect="1" arrows="1" fold="1" page="1" pageScale="1" pageWidth="827" pageHeight="1169" math="0" shadow="0">
            <root>
                <mxCell id="0"/>
                <mxCell id="1" parent="0"/>
                <mxCell id="4" value="" style="edgeStyle=none;html=1;" edge="1" parent="1" source="2" target="3">
                    <mxGeometry relative="1" as="geometry"/>
                </mxCell>
                <mxCell id="2" value="开始" style="ellipse;whiteSpace=wrap;html=1;fontSize=15;" vertex="1" parent="1">
                    <mxGeometry x="90" y="342" width="120" height="80" as="geometry"/>
                </mxCell>
                <mxCell id="6" value="" style="edgeStyle=none;html=1;" edge="1" parent="1" source="3" target="5">
                    <mxGeometry relative="1" as="geometry"/>
                </mxCell>
                <mxCell id="3" value="对ISRJ进行仿真" style="whiteSpace=wrap;html=1;fontStyle=1;fontSize=15;" vertex="1" parent="1">
                    <mxGeometry x="90" y="440" width="120" height="60" as="geometry"/>
                </mxCell>
                <mxCell id="8" value="" style="edgeStyle=none;html=1;" edge="1" parent="1" source="5" target="7">
                    <mxGeometry relative="1" as="geometry"/>
                </mxCell>
                <mxCell id="5" value="获取时频域图像" style="whiteSpace=wrap;html=1;fontStyle=1;fontSize=15;" vertex="1" parent="1">
                    <mxGeometry x="90" y="520" width="120" height="60" as="geometry"/>
                </mxCell>
                <mxCell id="10" value="" style="edgeStyle=none;html=1;" edge="1" parent="1" source="7" target="9">
                    <mxGeometry relative="1" as="geometry"/>
                </mxCell>
                <mxCell id="7" value="制作标签图像" style="whiteSpace=wrap;html=1;fontStyle=1;fontSize=15;" vertex="1" parent="1">
                    <mxGeometry x="90" y="609" width="120" height="60" as="geometry"/>
                </mxCell>
                <mxCell id="12" value="" style="edgeStyle=orthogonalEdgeStyle;html=1;" edge="1" parent="1" source="9" target="11">
                    <mxGeometry relative="1" as="geometry">
                        <Array as="points">
                            <mxPoint x="150" y="775"/>
                            <mxPoint x="242" y="775"/>
                            <mxPoint x="242" y="470"/>
                        </Array>
                    </mxGeometry>
                </mxCell>
                <mxCell id="9" value="构建测试集和训练集" style="whiteSpace=wrap;html=1;fontStyle=1;fontSize=15;" vertex="1" parent="1">
                    <mxGeometry x="90" y="689" width="120" height="60" as="geometry"/>
                </mxCell>
                <mxCell id="14" value="" style="edgeStyle=orthogonalEdgeStyle;html=1;" edge="1" parent="1" source="11" target="13">
                    <mxGeometry relative="1" as="geometry"/>
                </mxCell>
                <mxCell id="11" value="构建U-Net模型" style="whiteSpace=wrap;html=1;fontStyle=1;fontSize=15;" vertex="1" parent="1">
                    <mxGeometry x="271" y="440" width="120" height="60" as="geometry"/>
                </mxCell>
                <mxCell id="16" value="" style="edgeStyle=orthogonalEdgeStyle;html=1;" edge="1" parent="1" source="13" target="15">
                    <mxGeometry relative="1" as="geometry"/>
                </mxCell>
                <mxCell id="13" value="将图像进行预处理后传入模型进行训练" style="whiteSpace=wrap;html=1;fontStyle=1;fontSize=15;" vertex="1" parent="1">
                    <mxGeometry x="271" y="520" width="120" height="60" as="geometry"/>
                </mxCell>
                <mxCell id="18" value="" style="edgeStyle=orthogonalEdgeStyle;html=1;" edge="1" parent="1" source="15" target="17">
                    <mxGeometry relative="1" as="geometry"/>
                </mxCell>
                <mxCell id="15" value="利用训练好的模型进行干扰信号的识别" style="whiteSpace=wrap;html=1;fontStyle=1;fontSize=15;" vertex="1" parent="1">
                    <mxGeometry x="271" y="609" width="120" height="60" as="geometry"/>
                </mxCell>
                <mxCell id="20" value="" style="edgeStyle=orthogonalEdgeStyle;html=1;" edge="1" parent="1" source="17" target="19">
                    <mxGeometry relative="1" as="geometry"/>
                </mxCell>
                <mxCell id="17" value="根据ISTFT进行干扰抑制" style="whiteSpace=wrap;html=1;fontStyle=1;fontSize=15;" vertex="1" parent="1">
                    <mxGeometry x="271" y="689" width="120" height="60" as="geometry"/>
                </mxCell>
                <mxCell id="19" value="结束" style="ellipse;whiteSpace=wrap;html=1;fontStyle=1;fontSize=15;" vertex="1" parent="1">
                    <mxGeometry x="271" y="769" width="120" height="60" as="geometry"/>
                </mxCell>
            </root>
        </mxGraphModel>
    </diagram>
</mxfile>